<svg width="24" height="24" viewBox="0 0 24 24" fill="none" xmlns="http://www.w3.org/2000/svg">
  <path d="M9.19843 2C7.97864 2 6.80881 2.48456 5.94629 3.34708C5.08377 4.2096 4.59921 5.37943 4.59921 6.59921C4.59921 7.819 5.08377 8.98883 5.94629 9.85135C6.80881 10.7139 7.97864 11.1984 9.19843 11.1984C10.4182 11.1984 11.588 10.7139 12.4506 9.85135C13.3131 8.98883 13.7976 7.819 13.7976 6.59921C13.7976 5.37943 13.3131 4.2096 12.4506 3.34708C11.588 2.48456 10.4182 2 9.19843 2ZM9.19843 4.29961C9.80832 4.29961 10.3932 4.54189 10.8245 4.97315C11.2558 5.40441 11.498 5.98932 11.498 6.59921C11.498 7.20911 11.2558 7.79402 10.8245 8.22528C10.3932 8.65654 9.80832 8.89882 9.19843 8.89882C8.58853 8.89882 8.00362 8.65654 7.57236 8.22528C7.1411 7.79402 6.89882 7.20911 6.89882 6.59921C6.89882 5.98932 7.1411 5.40441 7.57236 4.97315C8.00362 4.54189 8.58853 4.29961 9.19843 4.29961ZM17.247 11.1984C17.0631 11.1984 16.9711 11.2904 16.9711 11.4744L16.6721 12.9231C16.4192 13.1301 16.0513 13.3141 15.7753 13.498L14.3036 12.9231C14.2116 12.9231 14.0276 12.9231 13.9356 13.0381L12.8318 15.0618C12.7398 15.1537 12.7398 15.3377 12.9238 15.4297L14.1196 16.3725V17.5223L12.9238 18.4652C12.8318 18.5572 12.7398 18.7411 12.8318 18.8331L13.9356 20.8568C14.0276 20.9718 14.2116 20.9718 14.3036 20.9718L15.7753 20.3969C16.0513 20.5808 16.4192 20.7648 16.6721 20.9718L16.9711 22.4205C16.9711 22.6045 17.0631 22.6965 17.247 22.6965H19.5467C19.6386 22.6965 19.8226 22.6045 19.8226 22.4205L20.0066 20.9718C20.3745 20.7648 20.7425 20.5808 21.0184 20.3969L22.4212 20.9718C22.5821 20.9718 22.7661 20.9718 22.7661 20.8568L23.9619 18.8331C24.0539 18.7411 23.9619 18.5572 23.8699 18.4652L22.6741 17.5223V16.3725L23.8699 15.4297C23.9619 15.3377 24.0539 15.1537 23.9619 15.0618L22.7661 13.0381C22.7661 12.9231 22.5821 12.9231 22.4212 12.9231L21.0184 13.498C20.7425 13.3141 20.3745 13.1301 20.0066 12.9231L19.8226 11.4744C19.8226 11.2904 19.6386 11.1984 19.5467 11.1984H17.247ZM9.19843 12.3482C6.12845 12.3482 0 13.8775 0 16.9474V20.3969H11.1186C10.7967 19.7185 10.5667 18.9826 10.4517 18.2122H2.18463V16.9474C2.18463 16.2116 5.78351 14.5329 9.19843 14.5329C9.69284 14.5329 10.1988 14.5788 10.6932 14.6478C10.9231 13.912 11.2336 13.2221 11.636 12.5897C10.7392 12.4402 9.88831 12.3482 9.19843 12.3482ZM18.4428 15.2227C19.3627 15.2227 20.1216 15.9816 20.1216 16.9934C20.1216 17.9133 19.3627 18.6721 18.4428 18.6721C17.431 18.6721 16.6721 17.9133 16.6721 16.9934C16.6721 15.9816 17.431 15.2227 18.4428 15.2227Z" fill="currentColor"/>
  </svg>
  