<svg width="27" height="26" viewBox="0 0 27 26" fill="none" xmlns="http://www.w3.org/2000/svg">
<path d="M13.3159 25.8935C20.4662 25.8935 26.2626 20.097 26.2626 12.9468C26.2626 5.79646 20.4662 0 13.3159 0C6.1656 0 0.369141 5.79646 0.369141 12.9468C0.369141 20.097 6.1656 25.8935 13.3159 25.8935Z" fill="currentColor"/>
<path d="M11.1852 17.6217L10.3789 18.4224C9.68 19.1152 8.54327 19.1158 7.84475 18.4224C7.50893 18.0892 7.32449 17.6466 7.32449 17.1761C7.32449 16.7057 7.50913 16.2629 7.84455 15.9297L10.8123 12.9852C11.4274 12.3753 12.5845 11.4772 13.4278 12.3136C13.8148 12.698 14.4398 12.6954 14.824 12.3086C15.2085 11.9218 15.2061 11.2965 14.8191 10.9125C13.3856 9.48997 11.2669 9.75289 9.42166 11.5838L6.45367 14.5284C5.7416 15.2353 5.34961 16.1755 5.34961 17.1761C5.34961 18.1768 5.7416 19.1168 6.45387 19.8236C7.18665 20.5507 8.1489 20.914 9.11154 20.914C10.0744 20.914 11.037 20.5507 11.7702 19.8232L12.5771 19.0223C12.9639 18.6383 12.9661 18.0133 12.5817 17.6263C12.1978 17.2397 11.5722 17.2375 11.1852 17.6217ZM20.1794 6.18338C18.6398 4.65567 16.487 4.57281 15.0617 5.98699L14.0566 6.98468C13.6696 7.3689 13.6672 7.99373 14.0516 8.38074C14.436 8.76775 15.0611 8.76994 15.4481 8.38572L16.4527 7.38862C17.1911 6.65544 18.1579 6.95939 18.7885 7.58501C19.1248 7.91824 19.3094 8.36102 19.3094 8.83148C19.3094 9.30215 19.1246 9.74492 18.7889 10.0782L15.6226 13.2192C14.1747 14.6557 13.4955 13.9815 13.2057 13.6939C12.8187 13.3097 12.1939 13.312 11.8094 13.6989C11.425 14.0857 11.4274 14.7109 11.8144 15.0949C12.4791 15.7546 13.2378 16.0816 14.0331 16.0816C15.0069 16.0816 16.0355 15.5913 17.0134 14.6203L20.1798 11.4792C20.8917 10.7723 21.2841 9.83197 21.2841 8.83128C21.2841 7.831 20.8917 6.89067 20.1794 6.18338Z" fill="white"/>
</svg>
