<svg width="24" height="24" viewBox="0 0 24 24" fill="none" xmlns="http://www.w3.org/2000/svg">
  <path d="M3.03157 0C1.35789 0 0 1.37936 0 3.07951C0 4.77966 1.35789 6.15903 3.03157 6.15903C4.70525 6.15903 6.06315 4.77966 6.06315 3.07951C6.03157 1.37936 4.67368 0 3.03157 0Z" fill="currentColor"/>
  <path d="M9.44346 4.04188H23.054C23.5908 4.04188 24.0013 3.62487 24.0013 3.07954C24.0013 2.5342 23.5908 2.11719 23.054 2.11719H9.44346C8.90662 2.11719 8.49609 2.5342 8.49609 3.07954C8.49609 3.62487 8.90662 4.04188 9.44346 4.04188Z" fill="currentColor"/>
  <path d="M3.03157 8.40454C1.35789 8.40454 0 9.78391 0 11.4841C0 13.1842 1.35789 14.5636 3.03157 14.5636C4.70525 14.5636 6.06315 13.1842 6.06315 11.4841C6.03157 9.78391 4.67368 8.40454 3.03157 8.40454Z" fill="currentColor"/>
  <path d="M23.054 10.5215H9.44346C8.90662 10.5215 8.49609 10.9385 8.49609 11.4838C8.49609 12.0292 8.90662 12.4462 9.44346 12.4462H23.054C23.5908 12.4462 24.0013 12.0292 24.0013 11.4838C24.0013 10.9385 23.5908 10.5215 23.054 10.5215Z" fill="currentColor"/>
  <path d="M3.03157 16.8418C1.35789 16.8418 0 18.2212 0 19.9213C0 21.6215 1.35789 23.0008 3.03157 23.0008C4.70525 23.0008 6.06315 21.6215 6.06315 19.9213C6.03157 18.1891 4.67368 16.8418 3.03157 16.8418Z" fill="currentColor"/>
  <path d="M23.054 18.9258H9.44346C8.90662 18.9258 8.49609 19.3428 8.49609 19.8881C8.49609 20.4335 8.90662 20.8505 9.44346 20.8505H23.054C23.5908 20.8505 24.0013 20.4335 24.0013 19.8881C24.0013 19.3428 23.5908 18.9258 23.054 18.9258Z" fill="currentColor"/>
</svg>
  