<svg width="25" height="24" viewBox="0 0 25 24" fill="none" xmlns="http://www.w3.org/2000/svg">
  <path d="M18.73 14.6289C17.7733 14.6289 16.8478 14.4733 15.9844 14.1933C15.7122 14.1 15.4089 14.17 15.1989 14.38L13.9778 15.9122C11.7767 14.8622 9.71556 12.8789 8.61889 10.6L10.1356 9.30889C10.3456 9.09111 10.4078 8.78778 10.3222 8.51556C10.0344 7.65222 9.88667 6.72667 9.88667 5.77C9.88667 5.35 9.53667 5 9.11667 5H6.42556C6.00556 5 5.5 5.18667 5.5 5.77C5.5 12.9956 11.5122 19 18.73 19C19.2822 19 19.5 18.51 19.5 18.0822V15.3989C19.5 14.9789 19.15 14.6289 18.73 14.6289Z" fill="currentColor"/>
</svg>
  