<svg viewBox="0 0 23 22" fill="none" xmlns="http://www.w3.org/2000/svg">
<path d="M19.9999 4.835C19.027 3.4916 17.7492 2.39818 16.2716 1.64459C14.7939 0.890996 13.1586 0.498725 11.4999 0.500003C6.07288 0.500003 1.60988 4.615 1.05688 9.896L0.952881 10.89L2.94288 11.099L3.04588 10.104C3.23239 8.34409 3.96352 6.68627 5.13729 5.36176C6.31105 4.03725 7.86894 3.11208 9.59365 2.71531C11.3184 2.31853 13.1239 2.46993 14.7585 3.14838C16.393 3.82684 17.7751 4.99852 18.7119 6.5H14.9999V8.5H21.9999V1.5H19.9999V4.835ZM20.0569 10.901L19.9529 11.896C19.7664 13.6559 19.0352 15.3137 17.8615 16.6382C16.6877 17.9628 15.1298 18.8879 13.4051 19.2847C11.6804 19.6815 9.87485 19.5301 8.2403 18.8516C6.60574 18.1732 5.22369 17.0015 4.28688 15.5H7.99988V13.5H0.999881V20.5H2.99988V17.165C3.9728 18.5084 5.25056 19.6018 6.7282 20.3554C8.20583 21.109 9.84117 21.5013 11.4999 21.5C16.9259 21.5 21.3899 17.385 21.9419 12.104L22.0459 11.11L20.0569 10.901Z" fill="currentColor"/>
</svg>
