<svg width="32" height="32" viewBox="0 0 32 32" fill="none" xmlns="http://www.w3.org/2000/svg">
  <path d="M30.9114 22.1413V9.96412L1.08873 9.96412L1.08873 22.1413L30.9114 22.1413ZM4.38353 10.9629L4.38418 15.4164L5.38222 15.4164L5.38158 10.9629L7.56015 10.9629L7.56075 13.8281L8.5588 13.8281L8.55819 10.9629L10.7368 10.9629V15.4158L11.7348 15.4158L11.7348 10.9629H13.9134L13.914 13.8281H14.912L14.9114 10.9629H17.09L17.0906 15.4164L18.0887 15.4164L18.088 10.9629L20.266 10.9622L20.2654 13.8275L21.2634 13.8275L21.264 10.9622L23.4426 10.9622L23.4419 15.4158H24.44L24.4406 10.9622L26.6176 10.9622L26.6176 13.8281L27.6137 13.8303L27.6137 10.9645L29.913 10.9623L29.9126 21.1424L2.08746 21.1432L2.08786 10.9631L4.38353 10.9629Z" fill="currentColor"/>
  </svg>
  