<svg viewBox="0 0 22 17" fill="none" xmlns="http://www.w3.org/2000/svg">
<path id="shipping" d="M19 4.5H16V0.5H2C0.9 0.5 0 1.4 0 2.5V13.5H2C2 15.16 3.34 16.5 5 16.5C6.66 16.5 8 15.16 8 13.5H14C14 15.16 15.34 16.5 17 16.5C18.66 16.5 20 15.16 20 13.5H22V8.5L19 4.5ZM5 15C4.17 15 3.5 14.33 3.5 13.5C3.5 12.67 4.17 12 5 12C5.83 12 6.5 12.67 6.5 13.5C6.5 14.33 5.83 15 5 15ZM18.5 6L20.46 8.5H16V6H18.5ZM17 15C16.17 15 15.5 14.33 15.5 13.5C15.5 12.67 16.17 12 17 12C17.83 12 18.5 12.67 18.5 13.5C18.5 14.33 17.83 15 17 15Z" fill="currentColor"/>
</svg>
