<svg width="116" height="21" viewBox="0 0 116 21" fill="none" xmlns="http://www.w3.org/2000/svg">
  <path d="M99.6943 3.96875V13.4696H97.9062V3.96875H99.6943Z" fill="#5BB24F"/>
  <path d="M102.501 6.21484V9.98887C102.501 11.0867 103.107 11.9189 104.259 11.9189C105.411 11.9189 106.121 10.9981 106.121 9.90034V6.21484H107.909V13.4391H106.3L106.182 12.4602C105.429 13.1912 104.734 13.5428 103.715 13.5428C101.973 13.5428 100.703 12.2401 100.703 10.0041V6.21484H102.504H102.501Z" fill="#5BB24F"/>
  <path d="M113.848 8.1295C113.332 7.64636 112.739 7.487 112.047 7.487C111.191 7.487 110.718 7.75007 110.718 8.20285C110.718 8.65563 111.148 8.93388 112.077 8.99206C113.452 9.08059 115.194 9.38666 115.194 11.304C115.194 12.5764 114.144 13.6742 112.062 13.6742C110.91 13.6742 109.758 13.4845 108.695 12.3867L109.582 11.1143C110.098 11.6835 111.28 12.1084 112.093 12.1236C112.772 12.1388 113.408 11.7872 113.408 11.261C113.408 10.7627 112.994 10.5578 111.96 10.4996C110.586 10.3985 108.948 9.90015 108.948 8.26103C108.948 6.62191 110.69 6.00977 112.021 6.00977C113.158 6.00977 114.016 6.22983 114.857 6.96086L113.853 8.13203L113.848 8.1295Z" fill="#5BB24F"/>
  <path d="M28.791 6.22021H30.5178L30.505 13.4344H28.8063L28.7195 12.3796C28.3057 13.227 27.1664 13.6342 26.3541 13.6469C24.1982 13.657 22.6043 12.3391 22.6094 9.80959C22.6145 7.32308 24.2851 6.02544 26.4103 6.04315C27.3861 6.04315 28.3159 6.49846 28.7272 7.21684L28.7885 6.22274L28.791 6.22021ZM24.4128 9.80959C24.4128 11.1831 25.3681 12.0052 26.5661 12.0077C29.4015 12.0128 29.4092 7.63927 26.5738 7.63421C25.3784 7.63421 24.4153 8.43606 24.4128 9.80959Z" fill="#5BB24F"/>
  <path d="M37.6468 5.51465L38.9751 6.51128L38.1602 7.5332C38.7196 8.16305 38.9265 8.8789 38.924 9.67064C38.924 10.5636 38.5817 11.8207 37.3837 12.3595C38.5945 12.9615 38.8882 13.8241 38.8857 14.7448C38.8831 16.733 37.3454 17.9598 35.2329 17.9573C33.1204 17.9548 31.5418 16.6799 31.5469 14.7347H33.335C33.335 15.6732 34.2035 16.2904 35.238 16.2904C36.2725 16.2904 37.0848 15.7364 37.0874 14.7423C37.0874 13.7482 36.1448 13.2929 35.2431 13.2904C32.9697 13.2878 31.552 11.9093 31.5571 9.65799C31.5597 7.40672 33.2175 6.00537 35.2559 6.0079C35.8306 6.0079 36.4232 6.08379 36.9239 6.42021L37.6493 5.51465H37.6468ZM33.3426 9.66305C33.3426 10.9202 34.1958 11.6689 35.2457 11.6689C36.2802 11.6689 37.1385 10.9126 37.1385 9.66811C37.1385 8.42612 36.2853 7.63438 35.2508 7.63185C34.2009 7.63185 33.3452 8.40335 33.3426 9.66305Z" fill="#5BB24F"/>
  <path d="M43.5081 3.04297H44.4966L46.6781 5.06658V5.15511L44.8466 5.15258L43.9909 4.28749L43.1479 5.15005H41.3164V5.05899L43.5055 3.04297H43.5081Z" fill="#5BB24F"/>
  <path d="M54.0053 13.6112L54.0104 9.83718C54.0104 8.73938 53.4076 7.90464 52.2556 7.90464C51.1469 7.90464 50.3934 8.82285 50.3908 9.92066L50.3857 13.6062H48.5977L48.6104 6.18457H50.2197L50.3372 7.36332C51.078 6.64747 51.8162 6.28322 52.7307 6.28575C54.4447 6.28828 55.8164 7.56315 55.8113 9.8296L55.8062 13.6163H54.0053V13.6112Z" fill="#5BB24F"/>
  <path d="M63.4938 12.5763C62.6508 13.3933 61.7644 13.7145 60.6865 13.712C58.574 13.7095 56.8191 12.4473 56.8242 9.88739C56.8293 7.32753 58.6072 6.1766 60.7197 6.18166C61.7542 6.18166 62.5307 6.3739 63.3277 7.15046L62.1885 8.33427C61.7619 7.95232 61.2306 7.7626 60.7273 7.7626C59.5166 7.7626 58.6276 8.63781 58.6276 9.89498C58.6276 11.2685 59.5702 12.0021 60.6916 12.0046C61.2663 12.0046 61.8436 11.8452 62.2881 11.4076L63.4963 12.5788L63.4938 12.5763Z" fill="#5BB24F"/>
  <path d="M64.5401 6.17969L64.5273 13.6468H66.3282L66.341 6.18475H64.5401V6.17969Z" fill="#5BB24F"/>
  <path d="M73.502 6.16403H75.2287L75.216 13.3782H73.5173L73.4304 12.3234C73.0166 13.1708 71.8774 13.578 71.0651 13.5932C68.9092 13.6033 67.3152 12.2854 67.3203 9.75593C67.3254 7.26942 68.996 5.96925 71.1213 5.98949C72.097 5.98949 73.0268 6.4448 73.4381 7.16318L73.4994 6.16909L73.502 6.16403ZM69.1237 9.7534C69.1237 11.1269 70.0791 11.949 71.2771 11.9515C74.1125 11.9566 74.1201 7.58308 71.2847 7.57802C70.0893 7.57802 69.1263 8.37988 69.1237 9.7534Z" fill="#5BB24F"/>
  <path d="M66.4558 3.87988H64.3867V5.73148H66.4558V3.87988Z" fill="#5BB24F"/>
  <path d="M79.3308 10.583C79.4483 11.4759 80.2018 12.2272 81.4714 12.2297C82.1355 12.2297 83.2288 11.9059 83.6426 11.4835L84.4575 12.3992C83.6886 13.1884 82.4318 13.5653 81.3232 13.5628C78.8122 13.5577 77.323 12.0198 77.3281 9.71033C77.3307 7.51724 78.9042 6.08048 81.267 6.08301C83.7039 6.08807 85.3055 7.63866 85.0194 10.6083L79.3333 10.583H79.3308ZM83.1343 9.01977C83.0168 8.08385 82.2913 7.52483 81.2568 7.52483C80.281 7.52483 79.4713 8.0788 79.2056 9.01471L83.1343 9.0223V9.01977Z" fill="#5BB24F"/>
  <path d="M41.8894 10.6768C42.0069 11.5697 42.9801 12.2451 44.2496 12.2476C44.9138 12.2476 45.7848 12.0022 46.2012 11.5773L47.016 12.4929C46.2472 13.2822 44.9904 13.6591 43.8818 13.6565C41.3708 13.6515 39.8816 12.1135 39.8867 9.80408C39.8893 7.61099 41.4628 6.17423 43.8256 6.17676C46.2625 6.18182 47.8641 7.73241 47.578 10.7021L41.8919 10.6768H41.8894ZM45.6954 9.11352C45.5779 8.1776 44.8525 7.61858 43.8179 7.61858C42.8422 7.61858 42.0324 8.17254 41.7668 9.10846L45.6954 9.11605V9.11352Z" fill="#5BB24F"/>
  <path d="M18.8661 15.7513V5.25127L9.68305 0L0.5 5.25127V15.7513L9.68305 21L18.8661 15.7513Z" fill="#5BB24F"/>
  <path d="M3.17188 7.43673V6.76388L9.70346 3.04297L15.6169 6.43504L14.4163 7.12307L9.64726 4.41649L5.00848 7.06489L9.67536 9.79929L15.6169 6.43504L16.1942 6.76388V14.2512L10.2961 17.613V16.2116L14.9808 13.5202V8.16776L10.2961 10.8592V17.613L9.67536 17.957L3.17188 14.2209V7.40385L4.41586 8.13487V13.548L9.06997 16.2394V10.8288L3.17188 7.43673Z" fill="white"/>
  <path d="M90.6131 6.29883H88.8174H88.8148V8.90169H85.8594V10.7659H88.8148V13.6926H88.8174V13.6951H90.6131V13.6926V10.7659H92.8303H92.9964V8.89917L90.6157 8.90169L90.6131 6.29883Z" fill="#5BB24F"/>
  <path d="M93.5139 3.80957C91.9481 3.80957 90.3822 3.82475 88.8164 3.82475V5.72947H90.6121H93.5139C95.887 5.72947 95.9176 8.84836 93.5676 8.89642V10.7632C98.3979 10.7126 98.3647 3.80957 93.5139 3.80957Z" fill="#5BB24F"/>
</svg>
