<svg width="27" height="26" viewBox="0 0 27 26" fill="none" xmlns="http://www.w3.org/2000/svg">
  <path d="M13.1973 26C20.377 26 26.1973 20.1797 26.1973 13C26.1973 5.8203 20.377 0 13.1973 0C6.01756 0 0.197266 5.8203 0.197266 13C0.197266 20.1797 6.01756 26 13.1973 26Z" fill="#F5B718"/>
  <path d="M11.0569 17.6942L10.2473 18.4982C9.54547 19.1938 8.40407 19.1944 7.70267 18.4982C7.36547 18.1636 7.18027 17.7192 7.18027 17.2468C7.18027 16.7744 7.36567 16.3298 7.70247 15.9952L10.6825 13.0386C11.3001 12.4262 12.4619 11.5244 13.3087 12.3642C13.6973 12.7502 14.3249 12.7476 14.7107 12.3592C15.0967 11.9708 15.0943 11.343 14.7057 10.9574C13.2663 9.52903 11.1389 9.79303 9.28607 11.6314L6.30587 14.5882C5.59087 15.298 5.19727 16.242 5.19727 17.2468C5.19727 18.2516 5.59087 19.1954 6.30607 19.9052C7.04187 20.6352 8.00807 21 8.97467 21C9.94147 21 10.9081 20.6352 11.6443 19.9048L12.4545 19.1006C12.8429 18.715 12.8451 18.0874 12.4591 17.6988C12.0737 17.3106 11.4455 17.3084 11.0569 17.6942ZM20.0881 6.20884C18.5421 4.67485 16.3805 4.59165 14.9493 6.01164L13.9401 7.01344C13.5515 7.39924 13.5491 8.02664 13.9351 8.41524C14.3211 8.80383 14.9487 8.80603 15.3373 8.42024L16.3461 7.41904C17.0875 6.68284 18.0583 6.98804 18.6915 7.61624C19.0291 7.95084 19.2145 8.39544 19.2145 8.86783C19.2145 9.34043 19.0289 9.78503 18.6919 10.1196L15.5125 13.2736C14.0587 14.716 13.3767 14.039 13.0857 13.7502C12.6971 13.3644 12.0697 13.3668 11.6837 13.7552C11.2977 14.1436 11.3001 14.7714 11.6887 15.157C12.3561 15.8194 13.1179 16.1478 13.9165 16.1478C14.8943 16.1478 15.9271 15.6554 16.9091 14.6804L20.0885 11.5264C20.8033 10.8166 21.1973 9.87243 21.1973 8.86763C21.1973 7.86324 20.8033 6.91904 20.0881 6.20884Z" fill="white"/>
</svg>
  