<svg width="27" height="27" viewBox="0 0 27 27" fill="none" xmlns="http://www.w3.org/2000/svg">
<path d="M13.5535 26.1069C20.7627 26.1069 26.6069 20.2627 26.6069 13.0535C26.6069 5.84424 20.7627 0 13.5535 0C6.34424 0 0.5 5.84424 0.5 13.0535C0.5 20.2627 6.34424 26.1069 13.5535 26.1069Z" fill="#D33232"/>
<path d="M14.6093 17.4803C13.6225 17.404 13.2078 16.9147 12.4339 16.4449C12.0085 18.6766 11.4887 20.8159 9.94897 21.9336C9.47311 18.5605 10.6466 16.0269 11.1915 13.3377C10.2626 11.7741 11.3032 8.62669 13.2625 9.40225C15.6739 10.3558 11.1748 15.2165 14.1951 15.8236C17.3483 16.4574 18.6355 10.3523 16.68 8.36655C13.8547 5.49957 8.45602 8.30139 9.11989 12.4056C9.28161 13.4089 10.3185 13.7135 9.53408 15.098C7.72584 14.6976 7.18647 13.2714 7.25581 11.3701C7.36773 8.25788 10.0523 6.07874 12.745 5.77717C16.1504 5.39602 19.3466 7.02765 19.7878 10.2309C20.2841 13.8462 18.2504 17.7614 14.6093 17.4803Z" fill="#F1F2F2"/>
</svg>
