<svg width="48" height="49" viewBox="0 0 48 49" fill="none" xmlns="http://www.w3.org/2000/svg">
  <path fill-rule="evenodd" clip-rule="evenodd" d="M4.86719 44.1255L7.56119 34.2905C5.89919 31.4125 5.02519 28.1465 5.02619 24.8015C5.03119 14.3365 13.5472 5.82251 24.0132 5.82251C29.0922 5.82451 33.8582 7.80151 37.4432 11.3885C41.0272 14.9765 43.0012 19.7445 42.9992 24.8165C42.9952 35.2815 34.4772 43.7965 24.0132 43.7965H24.0052C20.8282 43.7955 17.7052 42.9985 14.9322 41.4855L4.86719 44.1255Z" fill="white"/>
  <path fill-rule="evenodd" clip-rule="evenodd" d="M4.86675 44.6255C4.73475 44.6255 4.60675 44.5735 4.51175 44.4775C4.38675 44.3505 4.33775 44.1655 4.38475 43.9945L7.02375 34.3585C5.38775 31.4525 4.52475 28.1525 4.52675 24.8025C4.53075 14.0605 13.2718 5.32251 24.0128 5.32251C29.2228 5.32451 34.1177 7.35351 37.7967 11.0355C41.4757 14.7185 43.5007 19.6125 43.4987 24.8165C43.4947 35.5575 34.7528 44.2965 24.0128 44.2965C20.8238 44.2955 17.6688 43.5085 14.8688 42.0195L4.99375 44.6085C4.95175 44.6205 4.90975 44.6255 4.86675 44.6255Z" fill="white"/>
  <path fill-rule="evenodd" clip-rule="evenodd" d="M24.0136 5.82251C29.0926 5.82451 33.8586 7.80151 37.4436 11.3885C41.0276 14.9765 43.0016 19.7445 42.9996 24.8165C42.9956 35.2815 34.4776 43.7965 24.0136 43.7965H24.0056C20.8286 43.7955 17.7056 42.9985 14.9326 41.4855L4.8676 44.1255L7.5616 34.2905C5.8996 31.4125 5.0256 28.1465 5.0266 24.8015C5.0316 14.3365 13.5476 5.82251 24.0136 5.82251ZM24.0136 4.82251C12.9976 4.82251 4.0316 13.7845 4.0266 24.8015C4.0256 28.1685 4.8756 31.4865 6.4876 34.4235L3.9026 43.8625C3.8086 44.2075 3.9046 44.5755 4.1566 44.8295C4.3466 45.0215 4.6036 45.1265 4.8676 45.1265C4.9526 45.1265 5.0376 45.1155 5.1216 45.0935L14.8086 42.5535C17.6366 44.0215 20.8066 44.7965 24.0056 44.7975C35.0296 44.7975 43.9956 35.8345 44.0006 24.8175C44.0026 19.4785 41.9256 14.4585 38.1526 10.6825C34.3776 6.90551 29.3566 4.82451 24.0136 4.82251Z" fill="#CFD8DC"/>
  <path fill-rule="evenodd" clip-rule="evenodd" d="M35.1784 13.6536C32.1984 10.6716 28.2374 9.02859 24.0214 9.02759C15.3174 9.02759 8.23838 16.1036 8.23438 24.8016C8.23338 27.7826 9.06738 30.6846 10.6474 33.1976L11.0234 33.7946L9.42838 39.6156L15.4014 38.0496L15.9784 38.3916C18.4004 39.8296 21.1784 40.5896 24.0104 40.5906H24.0164C32.7144 40.5906 39.7934 33.5136 39.7964 24.8146C39.7974 20.5996 38.1584 16.6356 35.1784 13.6536Z" fill="#40C351"/>
  <path fill-rule="evenodd" clip-rule="evenodd" d="M19.2702 16.8684C18.9152 16.0784 18.5412 16.0624 18.2022 16.0484C17.9252 16.0364 17.6092 16.0374 17.2932 16.0374C16.9772 16.0374 16.4632 16.1564 16.0282 16.6314C15.5932 17.1064 14.3672 18.2534 14.3672 20.5874C14.3672 22.9214 16.0672 25.1774 16.3042 25.4934C16.5412 25.8094 19.5862 30.7524 24.4082 32.6544C28.4152 34.2344 29.2312 33.9204 30.1012 33.8414C30.9712 33.7624 32.9082 32.6944 33.3032 31.5864C33.6982 30.4784 33.6982 29.5294 33.5802 29.3314C33.4612 29.1334 33.1452 29.0154 32.6712 28.7774C32.1972 28.5394 29.8642 27.3924 29.4292 27.2344C28.9942 27.0764 28.6782 26.9974 28.3612 27.4724C28.0452 27.9464 27.1362 29.0154 26.8592 29.3314C26.5822 29.6484 26.3052 29.6884 25.8312 29.4504C25.3572 29.2124 23.8292 28.7124 22.0162 27.0964C20.6062 25.8394 19.6542 24.2864 19.3772 23.8114C19.1002 23.3374 19.3472 23.0804 19.5852 22.8434C19.7982 22.6304 20.0592 22.2894 20.2972 22.0124C20.5342 21.7354 20.6132 21.5374 20.7712 21.2214C20.9292 20.9044 20.8502 20.6274 20.7312 20.3904C20.6142 20.1524 19.6922 17.8064 19.2702 16.8684Z" fill="white"/>
  </svg>
  