<svg width="27" height="26" viewBox="0 0 27 26" fill="none" xmlns="http://www.w3.org/2000/svg">
<g id="wpp">
<g id="Group">
<path id="Vector" d="M13.3339 25.8162C20.4628 25.8162 26.242 20.037 26.242 12.9081C26.242 5.77915 20.4628 0 13.3339 0C6.20493 0 0.425781 5.77915 0.425781 12.9081C0.425781 20.037 6.20493 25.8162 13.3339 25.8162Z" fill="#25D366"/>
</g>
<path id="Vector_2" d="M19.1712 7.00431C17.7404 5.57008 15.8349 4.78125 13.8099 4.78125C9.63012 4.78125 6.22894 8.18243 6.22894 12.3622C6.22894 13.6974 6.57726 15.0019 7.23974 16.1527L6.16406 20.0797L10.1833 19.0245C11.2897 19.629 12.5362 19.9466 13.8065 19.9466H13.8099C17.9862 19.9466 21.4625 16.5454 21.4625 12.3656C21.4625 10.3406 20.602 8.43854 19.1712 7.00431ZM13.8099 18.6694C12.6762 18.6694 11.5663 18.3655 10.5999 17.7918L10.3711 17.6552L7.98759 18.2801L8.62275 15.9546L8.47249 15.7156C7.84075 14.7116 7.50951 13.554 7.50951 12.3622C7.50951 8.8893 10.337 6.06181 13.8133 6.06181C15.4968 6.06181 17.0779 6.71746 18.2663 7.90924C19.4546 9.10102 20.1854 10.6821 20.182 12.3656C20.182 15.8419 17.2828 18.6694 13.8099 18.6694ZM17.2657 13.9501C17.0779 13.8545 16.1456 13.3969 15.9715 13.3354C15.7973 13.2705 15.671 13.2398 15.5446 13.431C15.4183 13.6223 15.0563 14.0457 14.9436 14.1755C14.8343 14.3018 14.7216 14.3189 14.5338 14.2233C13.4206 13.6667 12.6898 13.2296 11.9556 11.9695C11.761 11.6348 12.1503 11.6587 12.5122 10.9348C12.5737 10.8084 12.543 10.6992 12.4952 10.6036C12.4474 10.5079 12.0683 9.57568 11.9112 9.19664C11.7576 8.82783 11.6005 8.87906 11.4844 8.87223C11.3751 8.8654 11.2488 8.8654 11.1224 8.8654C10.9961 8.8654 10.7912 8.91321 10.617 9.10102C10.4429 9.29225 9.95453 9.74984 9.95453 10.6821C9.95453 11.6143 10.6341 12.5159 10.7263 12.6422C10.8219 12.7686 12.0615 14.6809 13.9636 15.5038C15.1656 16.0229 15.6368 16.0673 16.2378 15.9785C16.6032 15.9239 17.3579 15.5209 17.515 15.077C17.6721 14.6331 17.6721 14.254 17.6243 14.1755C17.5799 14.0901 17.4535 14.0423 17.2657 13.9501Z" fill="white"/>
</g>
</svg>
